<svg width="567" height="175" viewBox="0 0 567 175" fill="none" xmlns="http://www.w3.org/2000/svg">
<path d="M136.875 92.4687V91.1114C140.845 90.7314 141.797 90.0794 141.797 86.7127V61.1914C141.797 58.1501 140.685 57.3901 136.875 57.1194V55.7607H155.403V57.1194C151.485 57.2821 150.373 58.1501 150.373 61.1914V86.7127C150.373 90.2421 151.38 90.8394 155.403 91.1114V92.4687H136.875Z" fill="#2D4C3F"/>
<path d="M193.522 57.1191C190.08 57.6618 189.392 58.2044 189.392 61.6258V93.4458H187.91L164.247 63.8524V85.3551C164.247 89.5364 165.147 90.6218 169.223 91.1111V92.4684H157.26V91.1111C161.123 90.6218 161.918 89.8631 161.918 86.5498V61.0284C159.695 57.8791 158.478 57.1191 157.418 57.1191V55.7604H168.588L187.063 79.1111V62.8751C187.063 58.5311 186.11 57.4991 182.194 57.1191V55.7604H193.522V57.1191Z" fill="#2D4C3F"/>
<path d="M231.748 57.1191C228.996 57.4991 228.255 58.2044 226.984 61.5711L214.913 93.4458H213.485L199.933 60.9204C198.663 57.8791 198.132 57.4991 195.487 57.1191V55.7604H213.273V57.1191L211.525 57.2271C209.513 57.3364 208.72 57.9338 208.72 59.1818C208.72 59.9964 208.88 60.4858 209.939 63.0911L217.243 81.2284L223.967 63.3631C224.867 60.9738 225.025 60.3764 225.025 59.5084C225.025 57.7698 224.231 57.3911 220.472 57.1191V55.7604H231.748V57.1191Z" fill="#2D4C3F"/>
<path d="M264.68 92.4687H233.712V91.1114C237.63 90.6767 238.371 89.8074 238.371 86.9847V60.9741C238.371 58.2047 237.366 57.3354 233.712 57.1194V55.7607H264.258V66.6754H262.934C261.716 59.3994 259.016 57.6074 250.387 57.6074C247.635 57.6074 246.947 58.4767 246.947 60.5394V72.7581C252.558 72.7034 254.887 70.9661 255.523 64.6661H256.899V83.0207H255.523C254.992 76.5581 252.716 74.6034 246.947 74.6034V87.7447C246.947 90.0794 247.899 90.7847 251.34 90.7847C255.47 90.7847 258.487 89.9701 260.975 87.8527C262.775 86.3327 263.728 84.7034 265.316 81.1741H266.799L264.68 92.4687Z" fill="#2D4C3F"/>
<path d="M282.791 73.735C289.726 73.6804 292.479 72.2684 292.479 65.6444C292.479 59.8884 290.52 57.607 285.596 57.607C283.532 57.607 282.791 58.259 282.791 60.051V73.735ZM295.231 92.4684L284.272 75.4724H282.791V86.115C282.791 90.079 283.32 90.5684 287.45 91.111V92.4684H269.556V91.111C273.686 90.623 274.215 90.2417 274.215 85.9524V62.5484C274.215 58.3137 273.475 57.391 269.556 57.119V55.7617H285.862C296.184 55.7617 301.531 58.8564 301.531 65.1004C301.531 67.5444 300.684 70.0417 299.15 71.5084C297.667 72.8657 296.29 73.735 293.219 74.603L303.755 89.9164C304.231 90.623 305.131 91.111 306.084 91.111V92.4684H295.231Z" fill="#2D4C3F"/>
<path d="M343.516 57.1191C340.075 57.6618 339.387 58.2044 339.387 61.6258V93.4458H337.904L314.242 63.8524V85.3551C314.242 89.5364 315.142 90.6218 319.218 91.1111V92.4684H307.255V91.1111C311.118 90.6218 311.912 89.8631 311.912 86.5498V61.0284C309.69 57.8791 308.472 57.1191 307.412 57.1191V55.7604H318.583L337.058 79.1111V62.8751C337.058 58.5311 336.104 57.4991 332.188 57.1191V55.7604H343.516V57.1191Z" fill="#2D4C3F"/>
<path d="M358.769 66.4584L353.793 79.6531H364.116L358.769 66.4584ZM363.216 92.4691V91.1118L364.909 90.9491C366.656 90.7851 367.345 90.3504 367.345 89.1558C367.345 87.9611 366.709 86.0611 364.909 81.7718H352.998L352.31 83.6184C351.676 85.3011 350.669 87.5811 350.669 88.8851C350.669 90.2971 351.834 90.8944 354.957 91.1118V92.4691H344.264V91.1118C346.698 90.6771 347.493 89.6998 349.505 84.5958L361.204 55.0011H362.686L374.438 83.3464C377.137 89.9171 378.09 91.1118 380.261 91.1118V92.4691H363.216Z" fill="#2D4C3F"/>
<path d="M395.725 87.0384C395.725 89.4824 396.414 90.5678 398.795 90.5678C402.289 90.5678 404.882 89.2651 406.683 86.6584C408.323 84.2144 409.33 79.3278 409.33 74.5491C409.33 69.8798 408.695 65.8611 407.159 63.0918C405.147 59.5078 402.501 57.6078 398.53 57.6078C396.466 57.6078 395.725 58.4771 395.725 59.9971V87.0384ZM399.271 55.7611C411.342 55.7611 418.541 62.5491 418.541 73.7344C418.541 79.3278 416.265 84.6491 412.453 88.0704C409.223 90.9491 404.459 92.4691 399.113 92.4691H382.754V91.1118C385.825 91.0024 387.149 89.7544 387.149 87.1478V60.7571C387.149 58.2598 386.142 57.4451 382.754 57.1198V55.7611H399.271Z" fill="#2D4C3F"/>
<path d="M452.055 92.4687H421.087V91.1114C425.005 90.6767 425.746 89.8074 425.746 86.9847V60.9741C425.746 58.2047 424.741 57.3354 421.087 57.1194V55.7607H451.633V66.6754H450.309C449.091 59.3994 446.391 57.6074 437.762 57.6074C435.01 57.6074 434.322 58.4767 434.322 60.5394V72.7581C439.933 72.7034 442.262 70.9661 442.898 64.6661H444.274V83.0207H442.898C442.367 76.5581 440.091 74.6034 434.322 74.6034V87.7447C434.322 90.0794 435.274 90.7847 438.715 90.7847C442.845 90.7847 445.862 89.9701 448.35 87.8527C450.15 86.3327 451.103 84.7034 452.691 81.1741H454.174L452.055 92.4687Z" fill="#2D4C3F"/>
<path d="M470.166 73.735C477.101 73.6804 479.854 72.2684 479.854 65.6444C479.854 59.8884 477.895 57.607 472.971 57.607C470.907 57.607 470.166 58.259 470.166 60.051V73.735ZM482.606 92.4684L471.647 75.4724H470.166V86.115C470.166 90.079 470.695 90.5684 474.825 91.111V92.4684H456.931V91.111C461.061 90.623 461.59 90.2417 461.59 85.9524V62.5484C461.59 58.3137 460.85 57.391 456.931 57.119V55.7617H473.237C483.559 55.7617 488.906 58.8564 488.906 65.1004C488.906 67.5444 488.059 70.0417 486.525 71.5084C485.042 72.8657 483.665 73.735 480.594 74.603L491.13 89.9164C491.606 90.623 492.506 91.111 493.459 91.111V92.4684H482.606Z" fill="#2D4C3F"/>
<path d="M512.946 56.7389C507.122 56.7389 503.787 63.1469 503.787 74.5495C503.787 86.0069 507.175 91.7082 513.21 91.7082C519.298 91.7082 522.527 85.8442 522.527 74.6575C522.527 63.0922 519.139 56.7389 512.946 56.7389ZM513.105 93.5002C502.146 93.5002 494.418 85.5722 494.418 74.3322C494.418 62.7669 502.411 54.9469 513.422 54.9469C524.062 54.9469 531.898 63.0375 531.898 74.2775C531.898 85.5722 524.062 93.5002 513.105 93.5002" fill="#2D4C3F"/>
<path d="M557.897 66.7298C556.838 63.2005 555.991 61.5711 554.191 59.6711C552.286 57.6618 550.062 56.6298 547.681 56.6298C544.027 56.6298 541.857 58.9111 541.857 62.0058C541.857 64.6671 543.075 65.9151 547.31 68.1965C549.903 69.6085 552.445 70.8565 555.145 72.3778C558.533 74.2778 560.915 77.8071 560.915 81.9338C560.915 88.7765 555.621 93.5005 547.786 93.5005C545.457 93.5005 543.498 93.1205 540.905 92.1978C539.739 91.8165 539.157 91.6538 538.734 91.6538C537.886 91.6538 537.463 92.0885 537.146 93.5005H535.61V80.0338H537.146C538.045 83.8898 538.786 85.7898 540.321 87.7991C542.333 90.4058 544.874 91.7085 547.945 91.7085C552.021 91.7085 554.615 89.3191 554.615 85.5725C554.615 83.6178 553.397 82.0965 551.597 80.7938C549.798 79.4911 547.415 78.4045 545.139 77.2645C539.157 74.3325 536.087 71.3458 536.087 65.8618C536.087 58.9645 540.479 54.9471 547.681 54.9471C549.745 54.9471 551.438 55.2725 553.873 56.1965C554.985 56.5751 555.621 56.7391 556.097 56.7391C557.05 56.7391 557.421 56.3591 557.791 54.8925H559.379V66.7298H557.897Z" fill="#2D4C3F"/>
<path d="M161.731 160.049C161.731 164.667 163.031 166.719 167.534 166.719C174.138 166.719 179.041 164.257 182.442 159.33C185.543 154.713 187.445 145.477 187.445 136.446C187.445 127.621 186.245 120.027 183.343 114.794C179.541 108.021 174.538 104.429 167.034 104.429C163.131 104.429 161.731 106.071 161.731 108.943V160.049ZM168.434 100.939C191.247 100.939 204.855 113.767 204.855 134.907C204.855 145.477 200.553 155.534 193.349 161.998C187.246 167.438 178.241 170.311 168.135 170.311H137.217V167.745C143.021 167.541 145.522 165.181 145.522 160.254V110.381C145.522 105.659 143.621 104.121 137.217 103.505V100.939H168.434Z" fill="#2D4C3F"/>
<path d="M268.183 170.311H209.651V167.746C217.054 166.924 218.455 165.283 218.455 159.947V110.791C218.455 105.558 216.554 103.916 209.651 103.506V100.939H267.382V121.566H264.88C262.58 107.815 257.478 104.428 241.167 104.428C235.964 104.428 234.663 106.071 234.663 109.971V133.06C245.27 132.958 249.672 129.674 250.874 117.77H253.475V152.455H250.874C249.874 140.243 245.57 136.548 234.663 136.548V161.383C234.663 165.796 236.466 167.13 242.968 167.13C250.772 167.13 256.476 165.59 261.179 161.588C264.582 158.715 266.382 155.636 269.383 148.966H272.186L268.183 170.311Z" fill="#2D4C3F"/>
<path d="M334.415 170.311H276.681V167.746C283.987 166.822 285.287 165.694 285.287 160.255V111.202C285.287 105.352 283.485 103.916 276.681 103.506V100.939L311.501 100.838V103.403C302.796 103.812 301.496 105.147 301.496 113.562V161.178C301.496 165.59 303.497 167.13 310 167.13C318.305 167.13 322.908 165.283 327.009 161.486C330.412 158.304 333.013 153.379 335.716 147.016H338.616L334.415 170.311Z" fill="#2D4C3F"/>
<path d="M412.15 121.669C410.149 114.999 408.548 111.92 405.146 108.329C401.544 104.531 397.342 102.581 392.84 102.581C385.936 102.581 381.833 106.892 381.833 112.741C381.833 117.769 384.134 120.129 392.138 124.44C397.041 127.108 401.845 129.468 406.948 132.341C413.35 135.933 417.853 142.604 417.853 150.403C417.853 163.333 407.846 172.261 393.04 172.261C388.636 172.261 384.934 171.543 380.032 169.799C377.83 169.08 376.73 168.772 375.929 168.772C374.329 168.772 373.528 169.593 372.928 172.261H370.026V146.811H372.928C374.628 154.097 376.029 157.689 378.932 161.485C382.734 166.412 387.536 168.875 393.34 168.875C401.044 168.875 405.946 164.36 405.946 157.279C405.946 153.584 403.645 150.711 400.242 148.248C396.842 145.785 392.34 143.732 388.036 141.577C376.73 136.036 370.926 130.392 370.926 120.028C370.926 106.995 379.232 99.4 392.84 99.4C396.741 99.4 399.944 100.016 404.546 101.761C406.646 102.479 407.846 102.787 408.748 102.787C410.549 102.787 411.249 102.068 411.95 99.2973H414.952V121.669H412.15Z" fill="#2D4C3F"/>
<path d="M492.29 103.505C485.886 104.532 484.486 106.173 484.486 112.228V144.451C484.486 154.713 481.784 162.615 476.882 166.616C472.579 170.208 465.575 172.261 458.471 172.261C451.067 172.261 444.663 170.516 439.96 166.72C434.258 162.101 431.956 156.56 431.956 146.607V113.357C431.956 105.045 430.756 104.224 423.752 103.505V100.94H457.371V103.505C449.566 104.121 447.866 105.455 447.866 113.869V146.504C447.866 160.768 452.767 167.232 462.474 167.232C474.18 167.232 480.084 159.639 480.084 144.451V113.665C480.084 106.173 477.782 104.121 470.378 103.505V100.94H492.29V103.505Z" fill="#2D4C3F"/>
<path d="M521.999 134.907C535.106 134.804 540.309 132.136 540.309 119.616C540.309 108.739 536.607 104.429 527.303 104.429C523.401 104.429 521.999 105.66 521.999 109.047V134.907ZM545.513 170.311L524.802 138.191H521.999V158.304C521.999 165.796 522.999 166.719 530.805 167.745V170.311H496.985V167.745C504.79 166.823 505.79 166.103 505.79 157.996V113.768C505.79 105.763 504.389 104.017 496.985 103.505V100.939H527.803C547.313 100.939 557.419 106.789 557.419 118.591C557.419 123.208 555.818 127.929 552.917 130.7C550.115 133.265 547.514 134.907 541.71 136.548L561.622 165.488C562.523 166.823 564.223 167.745 566.025 167.745V170.311H545.513Z" fill="#2D4C3F"/>
<path fill-rule="evenodd" clip-rule="evenodd" d="M0.520317 53.2375C19.8523 51.6629 37.7203 54.3935 53.5243 66.9149C50.9536 70.4709 48.5336 73.8215 45.9803 77.3535C36.1603 70.5189 25.9523 65.7869 13.3696 66.3122C13.6456 80.5469 18.7456 92.2655 28.0936 102.247C34.3763 108.952 36.0736 113.6 35.3416 123.018C19.4056 117.436 -3.76902 92.8775 0.520317 53.2375Z" fill="#A9D599"/>
<path fill-rule="evenodd" clip-rule="evenodd" d="M94.7194 79.1693C92.5781 79.9227 90.5141 80.8387 88.5434 81.9053C88.5421 81.9067 88.5407 81.9067 88.5407 81.9067C87.9234 82.2147 87.4087 82.5147 86.9594 82.8107C75.7754 89.492 67.9514 101.052 66.8274 114.359C65.8794 125.589 66.2447 136.935 66.1274 148.231C66.0354 157.003 66.1087 165.776 66.1087 174.865H78.8701C78.8701 174.865 81.2074 153.041 90.4087 150.357C90.4087 150.357 85.0701 149.024 78.8767 156.809C78.8834 145.465 78.8874 134.2 78.8567 122.945C78.8301 113.331 81.5567 104.945 88.7421 98.1507C91.0527 95.964 93.1034 93.6133 94.7874 91.04C94.8101 91.0173 100.759 85.084 101.141 78.2413C101.141 78.2413 100.263 77.1133 94.7194 79.1693Z" fill="#A9D599"/>
<path fill-rule="evenodd" clip-rule="evenodd" d="M122.788 54.8319C116.78 54.8319 111.066 54.6052 105.375 54.8705C83.0671 55.9079 58.2564 70.8079 49.2951 94.7772C49.1711 94.5519 49.0564 94.3345 48.9257 94.1039C39.5884 77.6532 24.4697 78.9345 24.4697 78.9345C29.6151 96.0852 40.6817 105.773 45.9804 109.593C44.2884 125.328 44.5311 141.293 44.6231 157.24C38.2897 148.975 32.7577 150.357 32.7577 150.357C41.9577 153.041 44.2951 174.865 44.2951 174.865L53.0751 174.788H57.5404C57.5404 157.759 57.8364 141.121 57.4684 124.499C57.0164 104.208 64.5191 88.0612 81.2644 76.5065C89.7471 70.6532 99.1497 67.4852 109.635 67.9665C110.063 78.9519 104.038 94.5852 96.7031 101.777C90.2191 108.137 86.6751 115.524 87.8817 124.883C108.504 116.072 126.731 90.4119 122.788 54.8319Z" fill="#4DA97C"/>
<path fill-rule="evenodd" clip-rule="evenodd" d="M61.2522 32.4245C61.2522 32.4245 46.3015 56.4738 61.2522 63.2578C61.2522 63.2578 76.5855 59.5924 61.2522 32.4245Z" fill="#E0E891"/>
<path fill-rule="evenodd" clip-rule="evenodd" d="M61.1035 -6.99274e-06C49.6582 9.95466 40.0222 21.1107 35.1862 35.8013C30.9289 48.7227 31.2569 49.428 44.4689 53.1387C44.6369 53.1867 44.8395 53.1187 45.3129 53.0853C45.5249 51.5693 46.8849 30.8733 61.9382 18.496C61.9382 18.496 74.2569 31.8387 77.7609 53.348C81.7209 51.9093 85.7755 50.4373 89.9182 48.932C87.6475 28.052 76.3795 12.916 61.1035 -6.99274e-06Z" fill="#E0E891"/>
</svg>
