<svg width="300" height="300" viewBox="0 0 300 300" fill="none" xmlns="http://www.w3.org/2000/svg">
<circle cx="150" cy="150" r="150" fill="white"/>
<path fill-rule="evenodd" clip-rule="evenodd" d="M88.5203 116.238C107.852 114.663 125.72 117.394 141.524 129.915C138.954 133.471 136.534 136.822 133.98 140.354C124.16 133.519 113.952 128.787 101.37 129.312C101.646 143.547 106.746 155.266 116.094 165.247C122.376 171.952 124.074 176.6 123.342 186.018C107.406 180.436 84.231 155.878 88.5203 116.238Z" fill="#A9D599"/>
<path fill-rule="evenodd" clip-rule="evenodd" d="M182.719 142.169C180.578 142.923 178.514 143.839 176.543 144.905C176.542 144.907 176.541 144.907 176.541 144.907C175.923 145.215 175.409 145.515 174.959 145.811C163.775 152.492 155.951 164.052 154.827 177.359C153.879 188.589 154.245 199.935 154.127 211.231C154.035 220.003 154.109 228.776 154.109 237.865H166.87C166.87 237.865 169.207 216.041 178.409 213.357C178.409 213.357 173.07 212.024 166.877 219.809C166.883 208.465 166.887 197.2 166.857 185.945C166.83 176.331 169.557 167.945 176.742 161.151C179.053 158.964 181.103 156.613 182.787 154.04C182.81 154.017 188.759 148.084 189.141 141.241C189.141 141.241 188.263 140.113 182.719 142.169Z" fill="#A9D599"/>
<path fill-rule="evenodd" clip-rule="evenodd" d="M210.788 117.832C204.78 117.832 199.066 117.605 193.375 117.871C171.067 118.908 146.256 133.808 137.295 157.777C137.171 157.552 137.056 157.335 136.926 157.104C127.588 140.653 112.47 141.935 112.47 141.935C117.615 159.085 128.682 168.773 133.98 172.593C132.288 188.328 132.531 204.293 132.623 220.24C126.29 211.975 120.758 213.357 120.758 213.357C129.958 216.041 132.295 237.865 132.295 237.865L141.075 237.788H145.54C145.54 220.759 145.836 204.121 145.468 187.499C145.016 167.208 152.519 151.061 169.264 139.507C177.747 133.653 187.15 130.485 197.635 130.967C198.063 141.952 192.038 157.585 184.703 164.777C178.219 171.137 174.675 178.524 175.882 187.883C196.504 179.072 214.731 153.412 210.788 117.832Z" fill="#4DA97C"/>
<path fill-rule="evenodd" clip-rule="evenodd" d="M149.252 95.4245C149.252 95.4245 134.301 119.474 149.252 126.258C149.252 126.258 164.585 122.592 149.252 95.4245Z" fill="#E0E891"/>
<path fill-rule="evenodd" clip-rule="evenodd" d="M149.104 63C137.658 72.9547 128.022 84.1107 123.186 98.8013C118.929 111.723 119.257 112.428 132.469 116.139C132.637 116.187 132.84 116.119 133.313 116.085C133.525 114.569 134.885 93.8733 149.938 81.496C149.938 81.496 162.257 94.8387 165.761 116.348C169.721 114.909 173.776 113.437 177.918 111.932C175.648 91.052 164.38 75.916 149.104 63Z" fill="#E0E891"/>
</svg>
