<svg width="567" height="175" viewBox="0 0 567 175" fill="none" xmlns="http://www.w3.org/2000/svg">
<path d="M136.875 92.4688V91.1115C140.845 90.7315 141.797 90.0795 141.797 86.7141V61.1915C141.797 58.1515 140.685 57.3901 136.875 57.1195V55.7608H155.403V57.1195C151.485 57.2808 150.373 58.1515 150.373 61.1915V86.7141C150.373 90.2421 151.38 90.8395 155.403 91.1115V92.4688H136.875Z" fill="white"/>
<path d="M193.522 57.1199C190.08 57.6612 189.392 58.2052 189.392 61.6252V93.4452H187.91L164.247 63.8519V85.3559C164.247 89.5359 165.147 90.6226 169.223 91.1119V92.4692H157.26V91.1119C161.123 90.6226 161.918 89.8626 161.918 86.5492V61.0292C159.695 57.8786 158.478 57.1199 157.418 57.1199V55.7599H168.588L187.063 79.1106V62.8746C187.063 58.5319 186.11 57.4986 182.194 57.1199V55.7599H193.522V57.1199Z" fill="white"/>
<path d="M231.748 57.1199C228.996 57.4986 228.255 58.2052 226.984 61.5719L214.913 93.4452H213.485L199.933 60.9199C198.663 57.8786 198.132 57.4986 195.487 57.1199V55.7599H213.273V57.1199L211.525 57.2266C209.513 57.3359 208.72 57.9332 208.72 59.1826C208.72 59.9972 208.88 60.4852 209.939 63.0919L217.243 81.2292L223.967 63.3639C224.867 60.9746 225.025 60.3772 225.025 59.5079C225.025 57.7706 224.231 57.3906 220.472 57.1199V55.7599H231.748V57.1199Z" fill="white"/>
<path d="M264.68 92.4688H233.712V91.1114C237.63 90.6768 238.371 89.8074 238.371 86.9848V60.9741C238.371 58.2061 237.366 57.3354 233.712 57.1194V55.7608H264.258V66.6754H262.934C261.716 59.3994 259.016 57.6074 250.387 57.6074C247.635 57.6074 246.947 58.4768 246.947 60.5394V72.7581C252.558 72.7034 254.887 70.9661 255.523 64.6661H256.899V83.0208H255.523C254.992 76.5581 252.716 74.6048 246.947 74.6048V87.7448C246.947 90.0794 247.899 90.7848 251.34 90.7848C255.47 90.7848 258.487 89.9714 260.975 87.8528C262.775 86.3328 263.728 84.7034 265.316 81.1741H266.799L264.68 92.4688Z" fill="white"/>
<path d="M282.791 73.7344C289.726 73.6797 292.479 72.2677 292.479 65.6437C292.479 59.8877 290.52 57.6064 285.596 57.6064C283.532 57.6064 282.791 58.2597 282.791 60.0504V73.7344ZM295.231 92.4691L284.272 75.4731H282.791V86.1144C282.791 90.0797 283.32 90.5677 287.45 91.1117V92.4691H269.556V91.1117C273.686 90.6224 274.215 90.2424 274.215 85.9531V62.5491C274.215 58.3131 273.475 57.3904 269.556 57.1197V55.7611H285.862C296.184 55.7611 301.531 58.8571 301.531 65.1011C301.531 67.5437 300.684 70.0411 299.15 71.5077C297.667 72.8664 296.29 73.7344 293.219 74.6037L303.755 89.9171C304.231 90.6224 305.131 91.1117 306.084 91.1117V92.4691H295.231Z" fill="white"/>
<path d="M343.516 57.1199C340.075 57.6612 339.387 58.2052 339.387 61.6252V93.4452H337.904L314.242 63.8519V85.3559C314.242 89.5359 315.142 90.6226 319.218 91.1119V92.4692H307.255V91.1119C311.118 90.6226 311.912 89.8626 311.912 86.5492V61.0292C309.69 57.8786 308.472 57.1199 307.412 57.1199V55.7599H318.583L337.058 79.1106V62.8746C337.058 58.5319 336.104 57.4986 332.188 57.1199V55.7599H343.516V57.1199Z" fill="white"/>
<path d="M358.769 66.4584L353.793 79.6531H364.116L358.769 66.4584ZM363.216 92.4691V91.1117L364.909 90.9477C366.656 90.7851 367.345 90.3517 367.345 89.1557C367.345 87.9611 366.709 86.0611 364.909 81.7704H352.998L352.31 83.6171C351.676 85.3011 350.669 87.5811 350.669 88.8851C350.669 90.2971 351.834 90.8931 354.957 91.1117V92.4691H344.264V91.1117C346.698 90.6771 347.493 89.6997 349.505 84.5957L361.204 55.0011H362.686L374.438 83.3464C377.137 89.9171 378.09 91.1117 380.261 91.1117V92.4691H363.216Z" fill="white"/>
<path d="M395.725 87.0391C395.725 89.4817 396.414 90.5671 398.795 90.5671C402.289 90.5671 404.882 89.2657 406.683 86.6591C408.323 84.2151 409.33 79.3284 409.33 74.5497C409.33 69.8804 408.695 65.8617 407.159 63.0911C405.147 59.5084 402.501 57.6071 398.53 57.6071C396.466 57.6071 395.725 58.4764 395.725 59.9977V87.0391ZM399.271 55.7604C411.342 55.7604 418.541 62.5497 418.541 73.7337C418.541 79.3284 416.265 84.6484 412.453 88.0697C409.223 90.9484 404.459 92.4684 399.113 92.4684H382.754V91.1124C385.825 91.0031 387.149 89.7537 387.149 87.1471V60.7577C387.149 58.2591 386.142 57.4457 382.754 57.1204V55.7604H399.271Z" fill="white"/>
<path d="M452.055 92.4688H421.087V91.1114C425.005 90.6768 425.746 89.8074 425.746 86.9848V60.9741C425.746 58.2061 424.741 57.3354 421.087 57.1194V55.7608H451.633V66.6754H450.309C449.091 59.3994 446.391 57.6074 437.762 57.6074C435.01 57.6074 434.322 58.4768 434.322 60.5394V72.7581C439.933 72.7034 442.262 70.9661 442.898 64.6661H444.274V83.0208H442.898C442.367 76.5581 440.091 74.6048 434.322 74.6048V87.7448C434.322 90.0794 435.274 90.7848 438.715 90.7848C442.845 90.7848 445.862 89.9714 448.35 87.8528C450.15 86.3328 451.103 84.7034 452.691 81.1741H454.174L452.055 92.4688Z" fill="white"/>
<path d="M470.166 73.7344C477.101 73.6797 479.854 72.2677 479.854 65.6437C479.854 59.8877 477.895 57.6064 472.971 57.6064C470.907 57.6064 470.166 58.2597 470.166 60.0504V73.7344ZM482.606 92.4691L471.647 75.4731H470.166V86.1144C470.166 90.0797 470.695 90.5677 474.825 91.1117V92.4691H456.931V91.1117C461.061 90.6224 461.59 90.2424 461.59 85.9531V62.5491C461.59 58.3131 460.85 57.3904 456.931 57.1197V55.7611H473.237C483.559 55.7611 488.906 58.8571 488.906 65.1011C488.906 67.5437 488.059 70.0411 486.525 71.5077C485.042 72.8664 483.665 73.7344 480.594 74.6037L491.13 89.9171C491.606 90.6224 492.506 91.1117 493.459 91.1117V92.4691H482.606Z" fill="white"/>
<path d="M512.946 56.7396C507.122 56.7396 503.787 63.1463 503.787 74.5489C503.787 86.0076 507.175 91.7089 513.21 91.7089C519.298 91.7089 522.527 85.8436 522.527 74.6583C522.527 63.0916 519.139 56.7396 512.946 56.7396ZM513.105 93.4996C502.146 93.4996 494.418 85.5729 494.418 74.3316C494.418 62.7663 502.411 54.9463 513.422 54.9463C524.062 54.9463 531.898 63.0383 531.898 74.2783C531.898 85.5729 524.062 93.4996 513.105 93.4996" fill="white"/>
<path d="M557.897 66.7292C556.838 63.2012 555.991 61.5719 554.191 59.6719C552.286 57.6612 550.062 56.6305 547.681 56.6305C544.027 56.6305 541.857 58.9119 541.857 62.0052C541.857 64.6665 543.075 65.9159 547.31 68.1959C549.903 69.6079 552.445 70.8572 555.145 72.3772C558.533 74.2785 560.915 77.8079 560.915 81.9345C560.915 88.7759 555.621 93.4999 547.786 93.4999C545.457 93.4999 543.498 93.1199 540.905 92.1985C539.739 91.8172 539.157 91.6532 538.734 91.6532C537.886 91.6532 537.463 92.0892 537.146 93.4999H535.61V80.0345H537.146C538.045 83.8892 538.786 85.7892 540.321 87.7999C542.333 90.4065 544.874 91.7079 547.945 91.7079C552.021 91.7079 554.615 89.3185 554.615 85.5732C554.615 83.6172 553.397 82.0959 551.597 80.7945C549.798 79.4905 547.415 78.4052 545.139 77.2639C539.157 74.3319 536.087 71.3465 536.087 65.8625C536.087 58.9652 540.479 54.9465 547.681 54.9465C549.745 54.9465 551.438 55.2732 553.873 56.1959C554.985 56.5759 555.621 56.7399 556.097 56.7399C557.05 56.7399 557.421 56.3599 557.791 54.8932H559.379V66.7292H557.897Z" fill="white"/>
<path d="M161.731 160.049C161.731 164.667 163.031 166.719 167.534 166.719C174.138 166.719 179.041 164.256 182.442 159.331C185.543 154.713 187.445 145.476 187.445 136.447C187.445 127.621 186.245 120.027 183.343 114.795C179.541 108.021 174.538 104.429 167.034 104.429C163.131 104.429 161.731 106.071 161.731 108.944V160.049ZM168.434 100.94C191.247 100.94 204.855 113.768 204.855 134.907C204.855 145.476 200.553 155.533 193.349 161.999C187.246 167.437 178.241 170.311 168.135 170.311H137.217V167.744C143.021 167.54 145.522 165.18 145.522 160.255V110.38C145.522 105.66 143.621 104.121 137.217 103.505V100.94H168.434Z" fill="white"/>
<path d="M268.183 170.311H209.651V167.744C217.054 166.924 218.455 165.283 218.455 159.947V110.791C218.455 105.558 216.554 103.916 209.651 103.506V100.94H267.382V121.566H264.88C262.58 107.815 257.478 104.43 241.167 104.43C235.964 104.43 234.663 106.07 234.663 109.971V133.06C245.27 132.958 249.672 129.674 250.874 117.77H253.475V152.455H250.874C249.874 140.243 245.57 136.55 234.663 136.55V161.383C234.663 165.796 236.466 167.13 242.968 167.13C250.772 167.13 256.476 165.591 261.179 161.588C264.582 158.715 266.382 155.636 269.383 148.966H272.186L268.183 170.311Z" fill="white"/>
<path d="M334.415 170.311H276.681V167.744C283.987 166.823 285.287 165.692 285.287 160.255V111.202C285.287 105.351 283.485 103.916 276.681 103.506V100.94L311.501 100.838V103.403C302.796 103.812 301.496 105.147 301.496 113.562V161.176C301.496 165.591 303.497 167.13 310 167.13C318.305 167.13 322.908 165.283 327.009 161.486C330.412 158.304 333.013 153.379 335.716 147.015H338.616L334.415 170.311Z" fill="white"/>
<path d="M412.15 121.669C410.149 114.999 408.548 111.92 405.146 108.328C401.544 104.531 397.342 102.581 392.84 102.581C385.936 102.581 381.833 106.892 381.833 112.741C381.833 117.769 384.134 120.131 392.138 124.44C397.041 127.108 401.845 129.469 406.948 132.341C413.35 135.933 417.853 142.604 417.853 150.404C417.853 163.333 407.846 172.26 393.04 172.26C388.636 172.26 384.934 171.541 380.032 169.799C377.83 169.081 376.73 168.772 375.929 168.772C374.329 168.772 373.528 169.593 372.928 172.26H370.026V146.811H372.928C374.628 154.096 376.029 157.689 378.932 161.485C382.734 166.412 387.536 168.875 393.34 168.875C401.044 168.875 405.946 164.36 405.946 157.279C405.946 153.584 403.645 150.711 400.242 148.248C396.842 145.785 392.34 143.732 388.036 141.579C376.73 136.036 370.926 130.392 370.926 120.028C370.926 106.995 379.232 99.4013 392.84 99.4013C396.741 99.4013 399.944 100.016 404.546 101.76C406.646 102.479 407.846 102.787 408.748 102.787C410.549 102.787 411.249 102.068 411.95 99.2973H414.952V121.669H412.15Z" fill="white"/>
<path d="M492.29 103.505C485.886 104.532 484.486 106.173 484.486 112.228V144.451C484.486 154.713 481.784 162.615 476.882 166.617C472.579 170.208 465.575 172.26 458.471 172.26C451.067 172.26 444.663 170.516 439.96 166.719C434.258 162.101 431.956 156.56 431.956 146.607V113.357C431.956 105.044 430.756 104.224 423.752 103.505V100.94H457.371V103.505C449.566 104.121 447.866 105.456 447.866 113.869V146.503C447.866 160.768 452.767 167.232 462.474 167.232C474.18 167.232 480.084 159.639 480.084 144.451V113.664C480.084 106.173 477.782 104.121 470.378 103.505V100.94H492.29V103.505Z" fill="white"/>
<path d="M522 134.906C535.106 134.805 540.309 132.136 540.309 119.617C540.309 108.74 536.608 104.43 527.304 104.43C523.401 104.43 522 105.66 522 109.046V134.906ZM545.513 170.312L524.802 138.19H522V158.305C522 165.797 523 166.718 530.805 167.745V170.312H496.985V167.745C504.79 166.822 505.79 166.104 505.79 157.997V113.768C505.79 105.764 504.389 104.018 496.985 103.505V100.94H527.804C547.313 100.94 557.42 106.789 557.42 118.592C557.42 123.209 555.818 127.93 552.917 130.701C550.116 133.266 547.514 134.906 541.71 136.549L561.622 165.489C562.524 166.822 564.224 167.745 566.025 167.745V170.312H545.513Z" fill="white"/>
<path fill-rule="evenodd" clip-rule="evenodd" d="M0.520317 53.2371C19.8523 51.6638 37.7203 54.3931 53.5243 66.9144C50.9536 70.4718 48.5336 73.8211 45.9803 77.3544C36.1603 70.5198 25.9523 65.7864 13.3696 66.3131C13.6456 80.5464 18.7456 92.2651 28.0936 102.248C34.3763 108.953 36.0736 113.601 35.3416 123.018C19.4056 117.437 -3.76902 92.8771 0.520317 53.2371Z" fill="white"/>
<path fill-rule="evenodd" clip-rule="evenodd" d="M94.7194 79.1693C92.5781 79.9227 90.5141 80.8387 88.5434 81.9054C88.5421 81.9067 88.5407 81.9067 88.5407 81.9067C87.9234 82.2147 87.4087 82.516 86.9594 82.8094C75.7754 89.492 67.9514 101.052 66.8274 114.359C65.8794 125.588 66.2447 136.935 66.1274 148.231C66.0354 157.003 66.1087 165.776 66.1087 174.865H78.8701C78.8701 174.865 81.2074 153.041 90.4087 150.357C90.4087 150.357 85.0701 149.024 78.8767 156.809C78.8834 145.465 78.8874 134.2 78.8567 122.945C78.8301 113.331 81.5567 104.945 88.7421 98.1507C91.0527 95.964 93.1034 93.6133 94.7874 91.04C94.8101 91.0173 100.759 85.084 101.141 78.2414C101.141 78.2414 100.263 77.1133 94.7194 79.1693Z" fill="white"/>
<path fill-rule="evenodd" clip-rule="evenodd" d="M122.788 54.8322C116.78 54.8322 111.066 54.6055 105.375 54.8695C83.0671 55.9082 58.2564 70.8068 49.2951 94.7775C49.1711 94.5521 49.0564 94.3348 48.9257 94.1042C39.5884 77.6535 24.4697 78.9348 24.4697 78.9348C29.6151 96.0855 40.6817 105.773 45.9804 109.593C44.2884 125.328 44.5311 141.295 44.6231 157.24C38.2897 148.975 32.7577 150.357 32.7577 150.357C41.9577 153.041 44.2951 174.865 44.2951 174.865L53.0751 174.789H57.5404C57.5404 157.759 57.8364 141.123 57.4684 124.5C57.0164 104.208 64.5191 88.0615 81.2644 76.5068C89.7471 70.6535 99.1497 67.4841 109.635 67.9668C110.063 78.9521 104.038 94.5855 96.7031 101.777C90.2191 108.137 86.6751 115.524 87.8817 124.883C108.504 116.072 126.731 90.4121 122.788 54.8322Z" fill="white"/>
<path fill-rule="evenodd" clip-rule="evenodd" d="M61.2522 32.4245C61.2522 32.4245 46.3015 56.4739 61.2522 63.2579C61.2522 63.2579 76.5855 59.5939 61.2522 32.4245Z" fill="white"/>
<path fill-rule="evenodd" clip-rule="evenodd" d="M61.1035 -6.99274e-06C49.6582 9.95599 40.0222 21.1093 35.1862 35.8013C30.9289 48.724 31.2569 49.428 44.4689 53.1387C44.6369 53.1867 44.8395 53.12 45.3129 53.0853C45.5249 51.5707 46.8849 30.8733 61.9382 18.496C61.9382 18.496 74.2569 31.8387 77.7609 53.348C81.7209 51.9093 85.7755 50.4373 89.9182 48.932C87.6475 28.052 76.3795 12.9173 61.1035 -6.99274e-06Z" fill="white"/>
</svg>
