<svg width="124" height="175" viewBox="0 0 124 175" fill="none" xmlns="http://www.w3.org/2000/svg">
<path fill-rule="evenodd" clip-rule="evenodd" d="M0.520317 53.2375C19.8523 51.6629 37.7203 54.3935 53.5243 66.9149C50.9536 70.4709 48.5336 73.8215 45.9803 77.3535C36.1603 70.5189 25.9523 65.7869 13.3696 66.3122C13.6456 80.5469 18.7456 92.2655 28.0936 102.247C34.3763 108.952 36.0736 113.6 35.3416 123.018C19.4056 117.436 -3.76902 92.8775 0.520317 53.2375Z" fill="#A9D599"/>
<path fill-rule="evenodd" clip-rule="evenodd" d="M94.7194 79.1693C92.5781 79.9227 90.5141 80.8387 88.5434 81.9053C88.5421 81.9067 88.5407 81.9067 88.5407 81.9067C87.9234 82.2147 87.4087 82.5147 86.9594 82.8107C75.7754 89.492 67.9514 101.052 66.8274 114.359C65.8794 125.589 66.2447 136.935 66.1274 148.231C66.0354 157.003 66.1087 165.776 66.1087 174.865H78.8701C78.8701 174.865 81.2074 153.041 90.4087 150.357C90.4087 150.357 85.0701 149.024 78.8767 156.809C78.8834 145.465 78.8874 134.2 78.8567 122.945C78.8301 113.331 81.5567 104.945 88.7421 98.1507C91.0527 95.964 93.1034 93.6133 94.7874 91.04C94.8101 91.0173 100.759 85.084 101.141 78.2413C101.141 78.2413 100.263 77.1133 94.7194 79.1693Z" fill="#A9D599"/>
<path fill-rule="evenodd" clip-rule="evenodd" d="M122.788 54.8319C116.78 54.8319 111.066 54.6052 105.375 54.8705C83.0671 55.9079 58.2564 70.8079 49.2951 94.7772C49.1711 94.5519 49.0564 94.3345 48.9257 94.1039C39.5884 77.6532 24.4697 78.9345 24.4697 78.9345C29.6151 96.0852 40.6817 105.773 45.9804 109.593C44.2884 125.328 44.5311 141.293 44.6231 157.24C38.2897 148.975 32.7577 150.357 32.7577 150.357C41.9577 153.041 44.2951 174.865 44.2951 174.865L53.0751 174.788H57.5404C57.5404 157.759 57.8364 141.121 57.4684 124.499C57.0164 104.208 64.5191 88.0612 81.2644 76.5065C89.7471 70.6532 99.1497 67.4852 109.635 67.9665C110.063 78.9519 104.038 94.5852 96.7031 101.777C90.2191 108.137 86.6751 115.524 87.8817 124.883C108.504 116.072 126.731 90.4119 122.788 54.8319Z" fill="#4DA97C"/>
<path fill-rule="evenodd" clip-rule="evenodd" d="M61.2522 32.4245C61.2522 32.4245 46.3015 56.4738 61.2522 63.2578C61.2522 63.2578 76.5855 59.5924 61.2522 32.4245Z" fill="#E0E891"/>
<path fill-rule="evenodd" clip-rule="evenodd" d="M61.1035 -6.99274e-06C49.6582 9.95466 40.0222 21.1107 35.1862 35.8013C30.9289 48.7227 31.2569 49.428 44.4689 53.1387C44.6369 53.1867 44.8395 53.1187 45.3129 53.0853C45.5249 51.5693 46.8849 30.8733 61.9382 18.496C61.9382 18.496 74.2569 31.8387 77.7609 53.348C81.7209 51.9093 85.7755 50.4373 89.9182 48.932C87.6475 28.052 76.3795 12.916 61.1035 -6.99274e-06Z" fill="#E0E891"/>
</svg>
